<svg width="50" height="50" viewBox="0 0 50 50" fill="none" xmlns="http://www.w3.org/2000/svg">
<path fill-rule="evenodd" clip-rule="evenodd" d="M0 25C0 11.1929 11.1929 0 25 0C38.8071 0 50 11.1929 50 25C50 38.8071 38.8071 50 25 50C11.1929 50 0 38.8071 0 25ZM17.6672 20.706H12.0017V37.7287H17.6672V20.706ZM18.0404 15.4403C18.0036 13.7712 16.8101 12.5 14.8719 12.5C12.9337 12.5 11.6667 13.7712 11.6667 15.4403C11.6667 17.0748 12.8964 18.3826 14.7983 18.3826H14.8346C16.8101 18.3826 18.0404 17.0748 18.0404 15.4403ZM38.0994 27.9684C38.0994 22.7399 35.3044 20.3064 31.5761 20.3064C28.5681 20.3064 27.2215 21.9585 26.4695 23.1176V20.7066H20.8032C20.8779 22.3039 20.8032 37.7292 20.8032 37.7292H26.4695V28.2223C26.4695 27.7135 26.5062 27.206 26.656 26.8418C27.0655 25.8254 27.9978 24.7731 29.563 24.7731C31.614 24.7731 32.4339 26.3341 32.4339 28.6216V37.7287H38.0992L38.0994 27.9684Z" fill="#6C63FF"/>
</svg>
