<svg width="50" height="50" viewBox="0 0 50 50" fill="none" xmlns="http://www.w3.org/2000/svg">
<path d="M45.8333 27.0833V0H4.16666V50H21.6854C31.8042 50 28.6333 33.3333 28.6333 33.3333C34.9021 34.8854 45.8333 34.2062 45.8333 27.0833ZM37.5 12.5H12.5V10.4167H37.5V12.5ZM37.5 18.75H12.5V16.6667H37.5V18.75ZM37.5 25H12.5V22.9167H37.5V25ZM33.1438 37.9646C37.4083 38.9604 43.1542 37.3833 45.8333 35.5083C42.7208 39.6708 34.9375 47.4 30.35 49.8437C32.7583 47.4104 33.6063 41.0229 33.1438 37.9646Z" fill="#6C63FF"/>
<path d="M45.8333 27.0833V0H4.16666V50H21.6854C31.8042 50 28.6333 33.3333 28.6333 33.3333C34.9021 34.8854 45.8333 34.2062 45.8333 27.0833ZM37.5 12.5H12.5V10.4167H37.5V12.5ZM37.5 18.75H12.5V16.6667H37.5V18.75ZM37.5 25H12.5V22.9167H37.5V25ZM33.1438 37.9646C37.4083 38.9604 43.1542 37.3833 45.8333 35.5083C42.7208 39.6708 34.9375 47.4 30.35 49.8437C32.7583 47.4104 33.6063 41.0229 33.1438 37.9646Z" fill="black" fill-opacity="0.2"/>
</svg>
