<svg width="50" height="50" viewBox="0 0 50 50" fill="none" xmlns="http://www.w3.org/2000/svg">
<path d="M36.7129 4.5332H13.2871C8.1062 4.5332 3.90625 8.73316 3.90625 13.9141V36.0869C3.90625 41.2678 8.1062 45.4678 13.2871 45.4678H36.7129C41.8938 45.4678 46.0938 41.2678 46.0938 36.0869V13.9141C46.0938 8.73316 41.8938 4.5332 36.7129 4.5332Z" fill="#6C63FF"/>
<path d="M36.7129 6.48633H13.2871C9.18488 6.48633 5.85938 9.81184 5.85938 13.9141V36.0869C5.85938 40.1891 9.18488 43.5146 13.2871 43.5146H36.7129C40.8151 43.5146 44.1406 40.1891 44.1406 36.0869V13.9141C44.1406 9.81184 40.8151 6.48633 36.7129 6.48633Z" fill="#6C63FF"/>
<path d="M15.5361 16.2803C15.5361 16.1309 15.5615 16.085 15.6855 16.085C16.7021 16.0605 18.6621 16.0107 20.5479 16.0107C25.5586 16.0107 27.2949 18.7891 27.2949 21.4932C27.2949 25.5127 24.1943 27.2236 20.374 27.2236H18.96V32.1064C18.96 32.2305 18.9102 32.3018 18.7646 32.3018H15.71C15.5859 32.3018 15.5361 32.2275 15.5361 32.1064V16.2803ZM18.96 24.1689C19.3818 24.1934 19.6543 24.1934 20.3496 24.1934C22.3086 24.1934 23.8721 23.5977 23.8721 21.5635C23.8721 20.001 22.8047 19.0088 20.6494 19.0088C19.8555 19.0088 19.1846 19.0332 18.9629 19.0586L18.96 24.1689Z" fill="white"/>
<path d="M28.957 22.8516C28.833 22.8271 28.7832 22.7773 28.7832 22.6562V20.1494C28.7805 20.126 28.7832 20.1022 28.791 20.08C28.7988 20.0577 28.8115 20.0375 28.8283 20.0209C28.845 20.0043 28.8653 19.9916 28.8876 19.984C28.9099 19.9763 28.9336 19.9738 28.957 19.9766H30.4219V19.5791C30.4219 18.4131 30.6172 17.5449 30.9678 16.8008C31.6133 15.4111 32.7793 14.4688 34.8135 14.4688C35.334 14.4688 35.7812 14.5186 36.1035 14.6426C36.2275 14.6924 36.252 14.7666 36.252 14.8906V17.3467C36.252 17.4443 36.2021 17.5205 36.0781 17.4951C35.8321 17.4561 35.583 17.4398 35.334 17.4463C34.416 17.4463 33.8691 17.917 33.8691 19.3018V19.9717H35.9785C36.1523 19.9717 36.1738 20.0459 36.1738 20.1445V22.6562C36.1738 22.8057 36.1494 22.8301 35.9785 22.8516H33.8691V32.0801C33.8691 32.2041 33.8447 32.3037 33.6465 32.3037H30.6436C30.6131 32.3086 30.5819 32.3061 30.5525 32.2966C30.5232 32.2871 30.4965 32.2708 30.4747 32.2489C30.4529 32.2271 30.4365 32.2004 30.427 32.1711C30.4175 32.1417 30.4151 32.1105 30.4199 32.0801V22.8516H28.957Z" fill="white"/>
</svg>
